<?xml version="1.0" encoding="UTF-8" standalone="no"?>
<svg
   version="1.1"
   width="451"
   height="471.74619"
   id="svg44"
   sodipodi:docname="favicon.svg"
   inkscape:version="1.2.2 (b0a84865, 2022-12-01)"
   xmlns:inkscape="http://www.inkscape.org/namespaces/inkscape"
   xmlns:sodipodi="http://sodipodi.sourceforge.net/DTD/sodipodi-0.dtd"
   xmlns="http://www.w3.org/2000/svg"
   xmlns:svg="http://www.w3.org/2000/svg">
  <defs
     id="defs48" />
  <sodipodi:namedview
     id="namedview46"
     pagecolor="#ffffff"
     bordercolor="#000000"
     borderopacity="0.25"
     inkscape:showpageshadow="2"
     inkscape:pageopacity="0.0"
     inkscape:pagecheckerboard="0"
     inkscape:deskcolor="#d1d1d1"
     showgrid="false"
     inkscape:zoom="0.39639344"
     inkscape:cx="1455.6245"
     inkscape:cy="240.92225"
     inkscape:window-width="1680"
     inkscape:window-height="997"
     inkscape:window-x="0"
     inkscape:window-y="25"
     inkscape:window-maximized="0"
     inkscape:current-layer="svg44" />
  <path
     id="path4"
     d="m 447.37695,0.02547198 c -1.11567,0.114725 -2.51082,0.622843 -5.30273,1.63867202 -0.83153,0.313499 -1.63825,0.617595 -2.44531,0.921875 -2.71395,0.996339 -5.42779,1.99596 -8.13672,3.005859 -1.96919,0.734219 -3.93842,1.464067 -5.91016,2.191406 -4.11996,1.515219 -8.2402,3.030106 -12.35742,4.552735 -8.30629,3.074067 -16.62491,6.117691 -24.94922,9.142578 -2.62817,0.954349 -5.25515,1.907552 -7.88281,2.863281 -17.95978,6.534053 -35.93852,13.018393 -53.91797,19.498047 -23.92717,8.623153 -47.84301,17.274743 -71.75586,25.937503 -7.73274,2.80142 -15.46656,5.60217 -23.20117,8.39843 -1.03679,0.37477 -2.04254,0.73783 -3.04883,1.10157 -1.99512,0.7212 -3.99121,1.44287 -5.98633,2.16406 -16.54265,5.9797 -33.07889,11.97355 -49.60742,17.99219 -18.4392,6.714552 -36.89729,13.376082 -55.35938,20.027342 -16.2983,5.87158 -32.591999,11.75796 -48.867183,17.69336 C 46.952179,145.06719 25.201436,152.82334 3.43164,160.53133 2.264552,160.94438 1.132763,161.34528 0,161.74618 v 2 c 2.145178,0.95236 2.145512,0.95212 4.03125,2.91601 l 2.546875,2.5625 c 1.502631,1.50668 3.005074,3.01493 4.503906,4.52539 1.10124,1.10993 2.203595,2.21805 3.306641,3.32617 2.373033,2.38201 4.746571,4.76599 7.117187,7.1504 3.816803,3.84025 7.634417,7.67725 11.457031,11.51171 10.886444,10.91857 21.771059,21.84 32.642579,32.77344 6.066943,6.10177 12.137712,12.20135 18.214842,18.29297 3.20858,3.21491 6.41669,6.42744 9.61719,9.65039 3.05982,3.08455 6.12091,6.16827 9.191409,9.24219 1.13096,1.13088 2.26093,2.26236 3.39062,3.39453 1.56868,1.58739 3.13743,3.17517 4.7168,4.75195 0.4859,0.48399 0.95807,0.95408 1.42968,1.42383 2.55081,2.56312 2.55139,2.56227 4.83399,4.47852 3.48717,1.41002 3.48589,1.40998 9.97265,-0.59375 1.68725,-0.54388 3.37767,-1.07862 5.07032,-1.60547 0.95386,-0.29658 1.88083,-0.58324 2.80664,-0.8711 5.54144,-1.74385 11.09736,-3.43634 16.6582,-5.11718 2.47008,-0.74651 4.93899,-1.4948 7.4082,-2.24414 1.27404,-0.38713 2.51148,-0.76294 3.74805,-1.13868 1.28197,-0.38947 2.52526,-0.76651 3.76953,-1.14453 3.23234,-0.98203 6.46482,-1.96561 9.69727,-2.94726 6.29238,-1.91088 12.58478,-3.82085 18.87695,-5.73242 0.67707,-0.2057 1.33503,-0.40581 1.99219,-0.60547 -1.2233,4.2298 -2.36689,8.45001 -3.34375,12.74414 -1.52376,6.72324 -3.20498,13.376 -5.09375,20.00586 -1.89431,6.64905 -3.56257,13.32792 -5.125,20.0625 -1.37795,5.96046 -2.86692,11.80336 -4.75,17.625 -0.98828,2.87109 -0.98828,2.8711 -1.6875,5.5625 -0.21504,3.41992 -0.66345,5.20386 1.5625,7.875 2.32483,1.92855 2.32508,1.92806 3.69726,3.57226 4.94107,5.9124 4.94084,5.91291 20.24024,21.05274 6.11851,6.0547 12.45577,11.96365 18.03125,18.53125 3.62066,4.27063 3.62067,4.27065 17.46875,17.96875 5.98688,5.92204 12.1546,11.71417 17.625,18.125 3.48027,4.09802 3.47979,4.0973 12.11914,12.65625 8.43574,8.33756 16.84119,16.68253 24.88086,25.40625 4.20851,4.63034 8.53419,8.83877 13.375,12.8125 3.61073,-12.75514 6.81232,-25.79787 11.5625,-38.1875 2.07488,-5.33316 2.07488,-5.33318 7.4375,-24.4375 1.16265,-4.17828 2.2712,-8.37106 3.75391,-12.44922 1.70386,-4.3977 3.1225,-8.78911 4.38867,-13.33399 2.3612,-8.56244 4.90424,-17.02461 7.76757,-25.43164 3.73443,-10.82852 6.99452,-21.75805 10.08985,-32.78515 1.35222,-4.85956 2.68495,-9.68832 4.5,-14.39844 2.09724,-5.41594 2.09724,-5.41546 6.64258,-21.50781 2.59383,-9.1839 5.30521,-18.31924 8.20117,-27.41211 0.96398,-3.02177 1.92463,-6.04341 2.88476,-9.06641 0.26181,-0.82534 0.51738,-1.62666 0.77149,-2.42773 1.65916,-5.22504 3.27614,-10.45644 4.79297,-15.72461 1.89943,-6.60978 3.95346,-13.1451 6.15234,-19.66211 2.7131,-8.01425 5.3802,-15.99687 7.55469,-24.17578 1.59167,-5.98807 3.41053,-11.86083 5.39062,-17.73243 3.5609,-10.48402 6.83284,-20.99213 9.81641,-31.65429 1.86626,-6.68529 3.85517,-13.32683 6.0625,-19.90821 2.8461,-8.41644 5.77447,-16.79328 8.0957,-25.373042 1.81888,-6.82139 3.82202,-13.52913 6.07813,-20.2207 2.71451,-7.99296 5.38944,-15.9507 7.55664,-24.11133 1.88603,-7.101874 4.13727,-14.04283 6.5,-21.000003 3.36759,-9.91323 6.34093,-19.8751 9,-30.00000002 -1.67079,-0.55693 -2.50737,-0.835428 -3.62305,-0.720703 z M 388,66.746178 c -1.33619,6.52956 -3.13058,12.7073 -5.3125,19 -1.89493,5.4819 -3.69875,10.97106 -5.30078,16.546872 -3.04542,10.58381 -6.48491,21.02274 -9.98047,31.46485 -0.63454,1.90241 -1.2702,3.80446 -1.9043,5.70703 -1.32607,3.97662 -2.65277,7.95231 -3.98242,11.92773 -1.66225,4.97002 -3.32147,9.94231 -4.97852,14.91406 -10.92735,32.78075 -10.9266,32.78005 -16.30273,48.41797 -0.44981,1.30918 -0.45127,1.3089 -0.91016,2.64453 -1.40514,4.08689 -2.81299,8.17324 -4.23047,12.25586 -2.38521,6.8972 -4.67984,13.77914 -6.49609,20.85352 -1.0132,3.81838 -2.32097,7.53252 -3.60156,11.26758 l -0.75,2.3125 c -1.11765,3.44608 -2.2765,6.74712 -3.75,10.0625 -1.26948,3.06791 -2.16321,5.92603 -3,9.125 -1.14607,4.38134 -2.65794,8.35537 -4.5,12.5 -1.85129,5.173 -3.44834,10.42526 -4.99024,15.69726 -3.64323,12.45473 -7.7965,24.71899 -12.00976,36.99024 -0.69303,2.02918 -1.38574,4.05849 -2.07813,6.08789 -3.90586,11.43253 -7.87301,22.84195 -11.92187,34.22461 -10.02667,-8.40268 -19.4882,-17.45269 -28.9043,-26.52735 -3.20492,-3.08558 -6.42944,-6.14227 -9.71094,-9.14648 -21.23574,-19.48475 -21.23622,-19.48557 -23.14062,-27.50781 -0.0828,-5.76061 1.40961,-10.67586 3.83984,-15.85547 1.12845,-2.42113 1.76326,-4.86357 2.35352,-7.46289 0.24105,-0.82886 0.48211,-1.65773 0.73047,-2.51172 1.91282,-6.86999 3.45102,-13.84355 5.08008,-20.78516 0.52612,-2.2415 1.05357,-4.48171 1.58203,-6.72265 3.27376,-13.88422 6.48276,-27.77452 9.45507,-41.72657 1.45621,-6.7612 3.14605,-13.42787 5.01563,-20.08593 0.78373,-2.53073 0.78373,-2.53074 0.69922,-4.66797 -1.04251,0.2726 -2.08606,0.54531 -3.16016,0.82617 -9.95434,2.60287 -19.90879,5.20631 -29.86328,7.80859 -5.11439,1.33701 -10.22749,2.67242 -15.3418,4.00977 -0.98944,0.25872 -1.98056,0.51859 -3,0.78515 -1.98364,0.5187 -3.96558,1.03789 -5.94921,1.55665 -4.86513,1.27212 -9.73158,2.54205 -14.59766,3.81054 -1.87801,0.48966 -3.75678,0.97901 -5.63477,1.46875 -0.90294,0.23545 -1.80407,0.47225 -2.73437,0.71485 -4.79107,1.25089 -9.58104,2.51017 -14.36524,3.7871 -1.94551,0.51906 -3.89149,1.03505 -5.83789,1.55079 -2.24005,0.59405 -4.47814,1.19419 -6.71484,1.80078 -0.96202,0.25394 -1.92485,0.50789 -2.91602,0.76953 -0.80894,0.21728 -1.61772,0.43434 -2.45117,0.6582 -3.03487,0.56486 -5.34858,0.85734 -8.43359,0.45313 -2.27573,-1.71406 -4.0558,-3.29338 -6.00586,-5.32422 -0.56658,-0.5657 -1.13305,-1.132 -1.7168,-1.71485 -1.86496,-1.86912 -3.70742,-3.75802 -5.55078,-5.64843 -1.29048,-1.30168 -2.58191,-2.60131 -3.875,-3.90039 -3.39669,-3.41958 -6.77562,-6.85766 -10.15039,-10.29883 -3.448139,-3.50956 -6.913129,-7.00204 -10.376949,-10.4961 C 83.532641,191.50748 76.760371,184.63283 70,177.74618 c 2.338761,-2.33876 4.023711,-2.85316 7.144531,-3.91602 1.08399,-0.37245 2.16636,-0.74517 3.2832,-1.12891 l 3.59961,-1.21679 c 1.89141,-0.64746 3.78244,-1.29583 5.67383,-1.94336 2.01862,-0.68987 4.03872,-1.37633 6.05859,-2.0625 4.20358,-1.4281 8.403289,-2.86287 12.603519,-4.30078 1.41055,-0.48283 2.82186,-0.96641 4.23242,-1.44922 0.69744,-0.23874 1.3947,-0.47863 2.11328,-0.72461 2.11898,-0.72502 4.23812,-1.44782 6.35743,-2.17188 11.41048,-3.89922 22.80258,-7.85152 34.18359,-11.83593 3.41132,-1.19309 6.82284,-2.38568 10.23437,-3.57813 0.84418,-0.29514 1.68688,-0.59044 2.55664,-0.89453 10.81252,-3.77827 21.63701,-7.52627 32.45899,-11.27734 15.27675,-5.2956 30.54832,-10.60575 45.8125,-15.9375 16.98905,-5.9341 33.99262,-11.82569 51,-17.707032 15.34076,-5.30551 30.67452,-10.63094 46,-15.98047 1.77856,-0.62053 3.55737,-1.24082 5.33594,-1.86133 7.35414,-2.5664 14.70668,-5.13678 22.05468,-7.7207 1.10046,-0.38591 2.20019,-0.77232 3.33399,-1.16993 1.93469,-0.67868 3.86804,-1.35878 5.80078,-2.04297 5.93601,-2.07958 5.93724,-2.08007 8.16211,-2.08007 z"
     style="fill:#008000" />
</svg>
