<?xml version="1.0" encoding="UTF-8" standalone="no"?>
<svg
   version="1.1"
   width="2956.3284"
   height="471.74619"
   id="svg44"
   sodipodi:docname="excel-to-json logo.svg"
   inkscape:version="1.2.2 (b0a84865, 2022-12-01)"
   xmlns:inkscape="http://www.inkscape.org/namespaces/inkscape"
   xmlns:sodipodi="http://sodipodi.sourceforge.net/DTD/sodipodi-0.dtd"
   xmlns="http://www.w3.org/2000/svg"
   xmlns:svg="http://www.w3.org/2000/svg">
  <defs
     id="defs48" />
  <sodipodi:namedview
     id="namedview46"
     pagecolor="#ffffff"
     bordercolor="#000000"
     borderopacity="0.25"
     inkscape:showpageshadow="2"
     inkscape:pageopacity="0.0"
     inkscape:pagecheckerboard="0"
     inkscape:deskcolor="#d1d1d1"
     showgrid="false"
     inkscape:zoom="0.39639344"
     inkscape:cx="1468.2382"
     inkscape:cy="238.3995"
     inkscape:window-width="1680"
     inkscape:window-height="997"
     inkscape:window-x="0"
     inkscape:window-y="25"
     inkscape:window-maximized="0"
     inkscape:current-layer="svg44" />
  <path
     id="path4"
     d="m 447.37695,0.02547198 c -1.11567,0.114725 -2.51082,0.622843 -5.30273,1.63867202 -0.83153,0.313499 -1.63825,0.617595 -2.44531,0.921875 -2.71395,0.996339 -5.42779,1.99596 -8.13672,3.005859 -1.96919,0.734219 -3.93842,1.464067 -5.91016,2.191406 -4.11996,1.515219 -8.2402,3.030106 -12.35742,4.552735 -8.30629,3.074067 -16.62491,6.117691 -24.94922,9.142578 -2.62817,0.954349 -5.25515,1.907552 -7.88281,2.863281 -17.95978,6.534053 -35.93852,13.018393 -53.91797,19.498047 -23.92717,8.623153 -47.84301,17.274743 -71.75586,25.937503 -7.73274,2.80142 -15.46656,5.60217 -23.20117,8.39843 -1.03679,0.37477 -2.04254,0.73783 -3.04883,1.10157 -1.99512,0.7212 -3.99121,1.44287 -5.98633,2.16406 -16.54265,5.9797 -33.07889,11.97355 -49.60742,17.99219 -18.4392,6.714552 -36.89729,13.376082 -55.35938,20.027342 -16.2983,5.87158 -32.591999,11.75796 -48.867183,17.69336 C 46.952179,145.06719 25.201436,152.82334 3.43164,160.53133 2.264552,160.94438 1.132763,161.34528 0,161.74618 v 2 c 2.145178,0.95236 2.145512,0.95212 4.03125,2.91601 l 2.546875,2.5625 c 1.502631,1.50668 3.005074,3.01493 4.503906,4.52539 1.10124,1.10993 2.203595,2.21805 3.306641,3.32617 2.373033,2.38201 4.746571,4.76599 7.117187,7.1504 3.816803,3.84025 7.634417,7.67725 11.457031,11.51171 10.886444,10.91857 21.771059,21.84 32.642579,32.77344 6.066943,6.10177 12.137712,12.20135 18.214842,18.29297 3.20858,3.21491 6.41669,6.42744 9.61719,9.65039 3.05982,3.08455 6.12091,6.16827 9.191409,9.24219 1.13096,1.13088 2.26093,2.26236 3.39062,3.39453 1.56868,1.58739 3.13743,3.17517 4.7168,4.75195 0.4859,0.48399 0.95807,0.95408 1.42968,1.42383 2.55081,2.56312 2.55139,2.56227 4.83399,4.47852 3.48717,1.41002 3.48589,1.40998 9.97265,-0.59375 1.68725,-0.54388 3.37767,-1.07862 5.07032,-1.60547 0.95386,-0.29658 1.88083,-0.58324 2.80664,-0.8711 5.54144,-1.74385 11.09736,-3.43634 16.6582,-5.11718 2.47008,-0.74651 4.93899,-1.4948 7.4082,-2.24414 1.27404,-0.38713 2.51148,-0.76294 3.74805,-1.13868 1.28197,-0.38947 2.52526,-0.76651 3.76953,-1.14453 3.23234,-0.98203 6.46482,-1.96561 9.69727,-2.94726 6.29238,-1.91088 12.58478,-3.82085 18.87695,-5.73242 0.67707,-0.2057 1.33503,-0.40581 1.99219,-0.60547 -1.2233,4.2298 -2.36689,8.45001 -3.34375,12.74414 -1.52376,6.72324 -3.20498,13.376 -5.09375,20.00586 -1.89431,6.64905 -3.56257,13.32792 -5.125,20.0625 -1.37795,5.96046 -2.86692,11.80336 -4.75,17.625 -0.98828,2.87109 -0.98828,2.8711 -1.6875,5.5625 -0.21504,3.41992 -0.66345,5.20386 1.5625,7.875 2.32483,1.92855 2.32508,1.92806 3.69726,3.57226 4.94107,5.9124 4.94084,5.91291 20.24024,21.05274 6.11851,6.0547 12.45577,11.96365 18.03125,18.53125 3.62066,4.27063 3.62067,4.27065 17.46875,17.96875 5.98688,5.92204 12.1546,11.71417 17.625,18.125 3.48027,4.09802 3.47979,4.0973 12.11914,12.65625 8.43574,8.33756 16.84119,16.68253 24.88086,25.40625 4.20851,4.63034 8.53419,8.83877 13.375,12.8125 3.61073,-12.75514 6.81232,-25.79787 11.5625,-38.1875 2.07488,-5.33316 2.07488,-5.33318 7.4375,-24.4375 1.16265,-4.17828 2.2712,-8.37106 3.75391,-12.44922 1.70386,-4.3977 3.1225,-8.78911 4.38867,-13.33399 2.3612,-8.56244 4.90424,-17.02461 7.76757,-25.43164 3.73443,-10.82852 6.99452,-21.75805 10.08985,-32.78515 1.35222,-4.85956 2.68495,-9.68832 4.5,-14.39844 2.09724,-5.41594 2.09724,-5.41546 6.64258,-21.50781 2.59383,-9.1839 5.30521,-18.31924 8.20117,-27.41211 0.96398,-3.02177 1.92463,-6.04341 2.88476,-9.06641 0.26181,-0.82534 0.51738,-1.62666 0.77149,-2.42773 1.65916,-5.22504 3.27614,-10.45644 4.79297,-15.72461 1.89943,-6.60978 3.95346,-13.1451 6.15234,-19.66211 2.7131,-8.01425 5.3802,-15.99687 7.55469,-24.17578 1.59167,-5.98807 3.41053,-11.86083 5.39062,-17.73243 3.5609,-10.48402 6.83284,-20.99213 9.81641,-31.65429 1.86626,-6.68529 3.85517,-13.32683 6.0625,-19.90821 2.8461,-8.41644 5.77447,-16.79328 8.0957,-25.373042 1.81888,-6.82139 3.82202,-13.52913 6.07813,-20.2207 2.71451,-7.99296 5.38944,-15.9507 7.55664,-24.11133 1.88603,-7.101874 4.13727,-14.04283 6.5,-21.000003 3.36759,-9.91323 6.34093,-19.8751 9,-30.00000002 -1.67079,-0.55693 -2.50737,-0.835428 -3.62305,-0.720703 z M 388,66.746178 c -1.33619,6.52956 -3.13058,12.7073 -5.3125,19 -1.89493,5.4819 -3.69875,10.97106 -5.30078,16.546872 -3.04542,10.58381 -6.48491,21.02274 -9.98047,31.46485 -0.63454,1.90241 -1.2702,3.80446 -1.9043,5.70703 -1.32607,3.97662 -2.65277,7.95231 -3.98242,11.92773 -1.66225,4.97002 -3.32147,9.94231 -4.97852,14.91406 -10.92735,32.78075 -10.9266,32.78005 -16.30273,48.41797 -0.44981,1.30918 -0.45127,1.3089 -0.91016,2.64453 -1.40514,4.08689 -2.81299,8.17324 -4.23047,12.25586 -2.38521,6.8972 -4.67984,13.77914 -6.49609,20.85352 -1.0132,3.81838 -2.32097,7.53252 -3.60156,11.26758 l -0.75,2.3125 c -1.11765,3.44608 -2.2765,6.74712 -3.75,10.0625 -1.26948,3.06791 -2.16321,5.92603 -3,9.125 -1.14607,4.38134 -2.65794,8.35537 -4.5,12.5 -1.85129,5.173 -3.44834,10.42526 -4.99024,15.69726 -3.64323,12.45473 -7.7965,24.71899 -12.00976,36.99024 -0.69303,2.02918 -1.38574,4.05849 -2.07813,6.08789 -3.90586,11.43253 -7.87301,22.84195 -11.92187,34.22461 -10.02667,-8.40268 -19.4882,-17.45269 -28.9043,-26.52735 -3.20492,-3.08558 -6.42944,-6.14227 -9.71094,-9.14648 -21.23574,-19.48475 -21.23622,-19.48557 -23.14062,-27.50781 -0.0828,-5.76061 1.40961,-10.67586 3.83984,-15.85547 1.12845,-2.42113 1.76326,-4.86357 2.35352,-7.46289 0.24105,-0.82886 0.48211,-1.65773 0.73047,-2.51172 1.91282,-6.86999 3.45102,-13.84355 5.08008,-20.78516 0.52612,-2.2415 1.05357,-4.48171 1.58203,-6.72265 3.27376,-13.88422 6.48276,-27.77452 9.45507,-41.72657 1.45621,-6.7612 3.14605,-13.42787 5.01563,-20.08593 0.78373,-2.53073 0.78373,-2.53074 0.69922,-4.66797 -1.04251,0.2726 -2.08606,0.54531 -3.16016,0.82617 -9.95434,2.60287 -19.90879,5.20631 -29.86328,7.80859 -5.11439,1.33701 -10.22749,2.67242 -15.3418,4.00977 -0.98944,0.25872 -1.98056,0.51859 -3,0.78515 -1.98364,0.5187 -3.96558,1.03789 -5.94921,1.55665 -4.86513,1.27212 -9.73158,2.54205 -14.59766,3.81054 -1.87801,0.48966 -3.75678,0.97901 -5.63477,1.46875 -0.90294,0.23545 -1.80407,0.47225 -2.73437,0.71485 -4.79107,1.25089 -9.58104,2.51017 -14.36524,3.7871 -1.94551,0.51906 -3.89149,1.03505 -5.83789,1.55079 -2.24005,0.59405 -4.47814,1.19419 -6.71484,1.80078 -0.96202,0.25394 -1.92485,0.50789 -2.91602,0.76953 -0.80894,0.21728 -1.61772,0.43434 -2.45117,0.6582 -3.03487,0.56486 -5.34858,0.85734 -8.43359,0.45313 -2.27573,-1.71406 -4.0558,-3.29338 -6.00586,-5.32422 -0.56658,-0.5657 -1.13305,-1.132 -1.7168,-1.71485 -1.86496,-1.86912 -3.70742,-3.75802 -5.55078,-5.64843 -1.29048,-1.30168 -2.58191,-2.60131 -3.875,-3.90039 -3.39669,-3.41958 -6.77562,-6.85766 -10.15039,-10.29883 -3.448139,-3.50956 -6.913129,-7.00204 -10.376949,-10.4961 C 83.532641,191.50748 76.760371,184.63283 70,177.74618 c 2.338761,-2.33876 4.023711,-2.85316 7.144531,-3.91602 1.08399,-0.37245 2.16636,-0.74517 3.2832,-1.12891 l 3.59961,-1.21679 c 1.89141,-0.64746 3.78244,-1.29583 5.67383,-1.94336 2.01862,-0.68987 4.03872,-1.37633 6.05859,-2.0625 4.20358,-1.4281 8.403289,-2.86287 12.603519,-4.30078 1.41055,-0.48283 2.82186,-0.96641 4.23242,-1.44922 0.69744,-0.23874 1.3947,-0.47863 2.11328,-0.72461 2.11898,-0.72502 4.23812,-1.44782 6.35743,-2.17188 11.41048,-3.89922 22.80258,-7.85152 34.18359,-11.83593 3.41132,-1.19309 6.82284,-2.38568 10.23437,-3.57813 0.84418,-0.29514 1.68688,-0.59044 2.55664,-0.89453 10.81252,-3.77827 21.63701,-7.52627 32.45899,-11.27734 15.27675,-5.2956 30.54832,-10.60575 45.8125,-15.9375 16.98905,-5.9341 33.99262,-11.82569 51,-17.707032 15.34076,-5.30551 30.67452,-10.63094 46,-15.98047 1.77856,-0.62053 3.55737,-1.24082 5.33594,-1.86133 7.35414,-2.5664 14.70668,-5.13678 22.05468,-7.7207 1.10046,-0.38591 2.20019,-0.77232 3.33399,-1.16993 1.93469,-0.67868 3.86804,-1.35878 5.80078,-2.04297 5.93601,-2.07958 5.93724,-2.08007 8.16211,-2.08007 z"
     style="fill:#008000" />
  <path
     id="path8"
     d="m 2638.3515,138.39071 c -29.9314,-0.53213 -59.9489,12.33479 -80.6386,36.2793 -17.782,21.58445 -23.6907,48.48928 -21.3965,75.8496 3.364,25.03362 15.8993,47.57012 35.6289,63.23829 0.5921,0.46385 1.1676,0.91308 1.7422,1.36328 2.9465,2.31407 5.7612,4.37951 9.207,5.91406 0.7158,0.24171 1.4107,0.47633 2.1055,0.71094 v 2 c 13.95,7.68672 30.4237,12.3845 46.3496,12.3125 1.1773,-0.0213 2.3202,-0.0419 3.4629,-0.0625 10.0526,-0.0446 19.4317,-0.46071 29.1406,-3.25 19.9488,-6.54731 42.0396,-19.17501 52.2891,-38.32032 0.2577,-0.57109 0.5078,-1.12538 0.7578,-1.67968 h 2 c 9.3931,-17.7133 15.4662,-33.73678 16,-54 0.2006,-24.47246 -8.0757,-49.69026 -25.3516,-67.41797 -0.9005,-0.87789 -1.7744,-1.72996 -2.6484,-2.58203 -3.3418,-3.37476 -6.7019,-6.6548 -10.3477,-9.70117 -17.3816,-13.65256 -37.8214,-20.29022 -58.3008,-20.6543 z m -1.5058,40.08203 c 15.361,0.05 28.7559,6.01218 39.8418,16.52344 4.3236,4.48928 7.4422,9.23816 10.3125,14.75 0.379,0.68321 0.7579,1.3664 1.1484,2.07031 6.9535,13.7501 7.2297,30.1542 3.1641,44.74219 -5.2028,15.19973 -15.8625,27.48524 -30.2618,34.65625 -16.054,7.07121 -32.4822,7.62871 -49.0507,1.53125 -14.7064,-6.55998 -25.3638,-18.33146 -31.2774,-33.21485 -5.6079,-16.14513 -5.5193,-32.60835 1.8633,-48.08593 2.1702,-4.14265 4.6195,-7.95227 7.4141,-11.69922 0.7677,-1.03447 0.7677,-1.03448 1.5507,-2.08985 10.3249,-12.83832 26.735,-19.31658 42.8868,-19.16015 1.1921,-0.0116 1.192,-0.0116 2.4082,-0.0234 z"
     style="fill:#008000" />
  <path
     id="path10"
     d="m 1959.8789,138.67001 c -26.1401,0.47885 -51.7606,10.95303 -70.8184,32.45507 -0.5519,0.63634 -1.0873,1.25348 -1.623,1.8711 -2.7036,3.11161 -5.0507,5.9063 -6.7774,9.67187 -0.2244,0.70656 -0.4422,1.39235 -0.6601,2.07813 h -2 c -11.0512,22.53356 -18.2798,47.14423 -12.6797,72.38281 0.2311,0.88984 0.4555,1.75352 0.6797,2.61719 0.5134,2.06972 1.0572,4.13207 1.625,6.1875 6.4904,20.18947 19.474,41.77377 38.6757,52.04297 0.5778,0.26164 1.1386,0.51559 1.6993,0.76953 v 2 l 5,1 v 2 c 21.2261,9.1907 39.7195,13.10554 63,12 22.9669,-2.59786 46.4298,-13.89855 61.2929,-31.89453 0.5804,-0.71586 1.1438,-1.41066 1.7071,-2.10547 1.3235,-1.51133 2.6354,-3.03279 3.9375,-4.5625 16.7637,-21.18199 22.2539,-47.4114 19.375,-73.875 -3.7346,-24.7002 -16.5127,-47.70208 -36.1797,-63.26953 -19.7193,-14.43292 -43.1891,-21.79166 -66.2539,-21.36914 z m 4.9668,39.80273 c 15.3645,0.05 28.8111,5.99792 39.8418,16.58594 12.7367,13.35576 17.1479,27.45801 16.8906,45.65625 -0.2911,7.89403 -1.2355,14.79102 -4.5781,22.03125 l -0.9102,2.00781 c -7.7486,14.96037 -20.6018,24.4127 -36.0937,30.09375 -14.2051,4.13591 -29.3984,2.74775 -42.8047,-3.38672 -15.7371,-8.81374 -25.7172,-22.30759 -31.0078,-39.34375 -3.4931,-14.82751 -1.0918,-31.65964 6.289,-45.00781 9.1412,-14.1443 21.8143,-24.03245 38.3438,-27.97461 3.8699,-0.68788 7.701,-0.67664 11.6211,-0.63867 1.1921,-0.0116 1.192,-0.0116 2.4082,-0.0234 z"
     style="fill:#008000" />
  <path
     id="path12"
     d="m 704.04101,138.34383 c -15.7273,-0.14203 -31.46765,3.51649 -46.04101,11.40235 -22.61348,13.15875 -40.43676,34.45358 -47.29297,60 l -0.70703,3 c -5.54107,21.52368 -2.9792,46.83562 6.44141,66.89843 0.52991,1.05453 1.04425,2.07806 1.55859,3.10157 5.50871,11.44708 12.93364,20.65756 22.55078,28.94922 0.83274,0.69726 1.64098,1.37402 2.44922,2.05078 18.44539,16.04989 42.51565,22.76914 66.69922,22.15625 1.12226,-0.0531 2.21152,-0.10465 3.30078,-0.15625 15.68388,-0.58358 31.24708,-5.01976 44.92187,-12.625 10.19247,-6.21914 24.61537,-15.27203 27.91407,-27.46485 0.20408,-3.62009 -1.00967,-5.25921 -3.24219,-8.03125 -0.54188,-0.63883 -1.06781,-1.25886 -1.59375,-1.8789 -2.1881,-2.82961 -4.22185,-5.73393 -7,-8 -3.28356,-0.61264 -4.66627,-0.19677 -7.55078,1.5039 -8.55099,6.37394 -17.4231,10.86457 -27.55078,14.18555 -20.18447,6.06606 -42.6112,5.6998 -61.33985,-4.28711 -1.61912,-0.88743 -3.25087,-1.75253 -4.89844,-2.58594 -0.83837,-0.41229 -0.83837,-0.41228 -1.66015,-0.8164 v -2 c -7.17131,-5.70778 -12.29057,-11.79394 -15.19922,-20.64844 -0.3429,-1.26704 -0.67499,-2.49679 -1.00781,-3.72656 -0.60484,-2.20637 -1.20485,-4.41412 -1.79297,-6.625 15.96552,0.0446 31.93091,0.0787 47.89648,0.0996 7.76298,0.01 15.52611,0.0225 23.28907,0.0449 6.8174,0.0201 13.63373,0.035 20.45117,0.041 3.60214,0.002 7.20451,0.005 10.80664,0.0176 3.44382,0.0139 6.88817,0.026 10.33203,0.0254 l 3.81445,-0.002 c 1.22427,0.007 2.4133,0.0145 3.60157,0.0215 1.12539,-0.002 2.21629,-0.005 3.30859,-0.008 6.44543,0.0126 10.81115,-1.78583 15.5,-6.24023 4.32733,-5.19663 5.57128,-9.51113 5.48828,-16.23047 -0.0572,-1.46173 -0.0572,-1.46173 -0.11328,-2.89453 -0.11864,-8.05654 -0.86816,-15.43663 -2.9375,-23.25 -6.55792,-22.30634 -21.02014,-41.83828 -41.57031,-53.19141 -1.44793,-0.72397 -1.44793,-0.72396 -2.86719,-1.43359 -14.51734,-7.31771 -30.23168,-11.26031 -45.95899,-11.40235 z m 1.40235,38.65235 c 9.60027,0.23392 19.05345,2.82507 26.86914,8 1.58497,1.22138 3.14879,2.47083 4.6875,3.75 0.69738,0.55043 1.39477,1.10086 2.11328,1.66797 4.6994,4.13364 7.55621,8.89272 10.38672,14.39453 0.35079,0.67281 0.70108,1.34586 1.0625,2.03906 0.31952,0.65879 0.63954,1.31733 0.96875,1.99609 0.42636,0.8741 0.42636,0.87386 0.86133,1.76563 C 753,212.74593 753,212.74618 753,219.74618 H 653 c 1.72846,-13.82766 7.07525,-23.50529 17.84765,-32.4375 9.66574,-7.01687 22.2525,-10.61326 34.59571,-10.3125 z"
     style="fill:#008000" />
  <path
     id="path14"
     d="m 1326.2578,138.11141 c -6.2522,0.0303 -12.4962,0.66566 -18.6055,1.96289 -0.9018,0.22844 -1.777,0.45016 -2.6523,0.67188 -11.5381,2.64256 -21.9488,7.84634 -32,14 -19.1024,12.67032 -33.3748,33.73611 -38.5293,55.91797 -0.2382,1.05142 -0.2372,1.05143 -0.4707,2.08203 -2.8759,12.05687 -3.926,23.74 -2.6875,36.125 0.2338,1.3175 0.4607,2.59625 0.6875,3.875 3.658,21.12859 12.5164,42.98698 29.4961,57.07031 0.8514,0.65609 1.6777,1.2929 2.5039,1.92969 7.3737,6.48772 14.9608,11.0649 23.8769,15.06836 0.7215,0.31676 1.4229,0.6242 2.1231,0.93164 15.3936,6.78109 31.0037,8.57484 47.75,7.875 21.7137,-1.36342 46.6095,-9.449 61.6523,-25.99219 0.5432,-0.64016 1.0705,-1.26148 1.5977,-1.88281 2.8728,-3.20563 5.7954,-6.29502 8,-10 0.4484,-3.34344 0.4982,-5.17541 -1.2578,-8.08203 -0.5923,-0.65211 -1.1672,-1.28504 -1.7422,-1.91797 -0.6348,-0.79023 -1.2511,-1.55722 -1.8672,-2.32422 -0.6827,-0.80351 -1.3452,-1.58339 -2.0078,-2.36328 -2.1552,-2.5821 -3.4755,-4.07522 -6.6485,-5.23438 -2.4766,-0.0781 -2.4766,-0.0781 -4.3359,0.85547 -8.4464,6.71872 -18.4785,11.16051 -28.6211,14.6875 -16.947,5.35301 -39.3636,6.75508 -55.7188,-1.23437 -0.6546,-0.34423 -1.2902,-0.67761 -1.9257,-1.01172 -12.6975,-6.57544 -21.4196,-15.41671 -25.9375,-29.22852 -0.2177,-0.68585 -0.4294,-1.3519 -0.6407,-2.01758 -0.7717,-2.37449 -1.5384,-4.75007 -2.2968,-7.1289 15.932,0.067 31.8628,0.11909 47.7949,0.15039 7.7485,0.0151 15.4976,0.0308 23.2461,0.0645 6.8031,0.0302 13.6068,0.0555 20.4101,0.0644 3.5968,0.004 7.1924,0.007 10.7891,0.0254 3.4355,0.021 6.8711,0.038 10.3066,0.0371 1.2974,-1.3e-4 2.5572,-0.002 3.8165,-0.002 4.9833,0.0455 10.0322,0.37418 14.875,-0.95312 6.0602,-2.48166 10.2947,-6.88817 13.039,-12.76563 4.3408,-15.74414 -1.2327,-35.44846 -7.9648,-49.62109 -11.2158,-21.33266 -29.0732,-38.29865 -52.211,-46.05469 -1.0545,-0.32141 -2.0779,-0.63335 -3.1015,-0.94531 -9.8791,-3.05431 -20.322,-4.68528 -30.7422,-4.63477 z m -0.3828,39.38477 c 0.7923,0.008 1.5841,0.0169 2.4004,0.0254 14.2982,0.27277 25.9623,4.62525 36.4668,14.67383 6.945,7.84623 12.2578,17.91557 12.2578,28.55078 h -101 c 0,-11.20157 4.6849,-19.67408 12,-28 10.469,-10.19112 23.3274,-15.43383 37.875,-15.25 z"
     style="fill:#008000" />
  <path
     d="m 2873.8119,138.5587 c 0.9469,-0.0122 1.8937,-0.0245 2.8692,-0.0371 6.0674,-0.0125 11.456,0.71666 17.3183,2.22461 0.9591,0.1766 1.9182,0.35321 2.9063,0.53516 18.0207,3.66385 35.1636,15.4568 45.3828,30.65625 11.5799,19.00892 11.8347,38.08453 11.9713,59.72282 0.021,3.34689 0.048,6.6937 0.077,10.04055 0.069,8.30397 0.1292,16.608 0.189,24.91204 0.051,7.03966 0.1059,14.07927 0.1658,21.11886 0.026,3.28807 0.047,6.57613 0.068,9.86424 0.017,2.02301 0.034,4.04602 0.051,6.06903 0,0.90616 0.01,1.81232 0.013,2.74594 0.051,5.19763 0.4476,10.18827 1.1767,15.33511 0.1231,1.60161 0.2153,3.20655 0.25,4.8125 0.039,1.09248 0.039,1.09248 0.078,2.20703 -0.4448,2.68453 -1.1382,3.36135 -3.3282,4.98047 -4.3239,0.61594 -8.6691,0.5574 -13.0314,0.55591 -2.1327,0.007 -4.2606,0.0609 -6.3924,0.11792 -7.1525,0.0894 -12.6313,-0.12124 -18.1867,-4.99048 -2.708,-3.28087 -3.639,-6.00957 -3.6477,-10.24618 -0.01,-0.91083 -0.014,-1.82165 -0.021,-2.76007 0,-0.99221 0.01,-1.98441 0.01,-3.00669 -0.01,-1.05099 -0.01,-2.10197 -0.016,-3.18481 -0.01,-2.28404 -0.016,-4.5681 -0.018,-6.85216 0,-3.6252 -0.02,-7.25014 -0.041,-10.87529 -0.055,-10.30816 -0.086,-20.61637 -0.1105,-30.92465 -0.016,-6.30708 -0.046,-12.61397 -0.085,-18.92095 -0.012,-2.39432 -0.018,-4.78868 -0.018,-7.18304 0.4982,-24.97652 0.4982,-24.97652 -10.4413,-46.72951 -8.1602,-7.35096 -17.1866,-10.4263 -28,-11 -0.9049,-0.0529 -1.8098,-0.1057 -2.7421,-0.16015 -18.6238,-0.5681 -36.0337,6.39833 -50.2579,18.16015 -0.577,0.35824 -1.154,0.71648 -1.7485,1.08557 -3.0926,2.12973 -4.9603,3.75554 -5.8947,7.47439 -0.2385,3.25189 -0.2534,6.43974 -0.1956,9.70005 -0.01,1.23155 -0.012,2.4631 -0.018,3.73197 -0.01,2.67118 0,5.33874 0.023,8.00946 0.042,4.22374 0.035,8.44655 0.021,12.67042 -0.016,6.68059 0,13.36062 0.033,20.04114 0.055,11.96442 0.064,23.92887 0.046,35.8934 0,4.19698 0.01,8.39345 0.035,12.59035 0.018,3.22419 0.017,6.4484 0.019,9.67264 0.012,1.16014 0.025,2.32028 0.038,3.51558 0,1.0668 0,2.1336 -0.01,3.23272 0,0.92414 0.01,1.84828 0.014,2.80043 -0.4499,3.18057 -1.4053,5.04743 -3.3653,7.58188 -2.8852,0.49342 -5.1786,0.65576 -8.0625,0.59375 -0.7876,4e-5 -1.5753,8e-5 -2.3869,1.2e-4 -1.6644,-0.005 -3.3288,-0.0229 -4.9929,-0.0519 -2.5487,-0.0418 -5.0947,-0.0411 -7.6436,-0.0342 -1.6172,-0.0105 -3.2344,-0.0234 -4.8516,-0.0391 -0.7625,-2e-4 -1.5251,-4e-4 -2.3107,-6.1e-4 -5.1888,-0.11615 -5.1888,-0.11615 -7.4528,-1.53177 -1.9746,-2.94356 -1.712,-5.91343 -1.6799,-9.33822 0,-0.75999 -0.01,-1.51998 -0.014,-2.30299 -0.012,-2.55429 0,-5.10805 0.01,-7.66234 0,-1.82807 -0.01,-3.65614 -0.016,-5.4842 -0.014,-4.971 -0.01,-9.94181 0,-14.91282 0.01,-5.19563 5e-4,-10.39124 0,-15.58687 -0.01,-8.72611 0,-17.45213 0.016,-26.17822 0.016,-10.09693 0.011,-20.19368 -0.01,-30.2906 -0.014,-8.65992 -0.016,-17.31979 -0.01,-25.97972 0,-5.17618 0.01,-10.35228 0,-15.52845 -0.01,-4.8657 0,-9.73116 0.015,-14.59683 0,-1.78867 0,-3.57737 0,-5.36604 -0.01,-2.43601 0,-4.87125 0.017,-7.30721 -0.01,-0.71293 -0.013,-1.42586 -0.02,-2.1604 0.034,-2.86853 0.085,-4.78899 1.7548,-7.17882 4.0914,-2.64064 10.2675,-1.52706 14.9589,-1.50014 1.224,-0.02 2.448,-0.04 3.709,-0.0605 8.9024,0.005 12.3989,0.99975 18.7285,7.18554 2.9164,3.64782 3.5757,7.78342 4.25,12.3125 0.9088,-0.64066 1.8176,-1.28133 2.754,-1.9414 17.7874,-12.33004 36.0839,-20.23132 58.0585,-20.2461 z"
     fill="#404142"
     id="path16"
     style="fill:#008000" />
  <path
     d="m 2492.9916,158.7423 c 2.4012,2.39649 2.9921,3.61767 3.0078,7.0039 -1.082,2.14844 -1.082,2.14844 -2.8125,4.375 -3.3484,4.47136 -6.4913,9.02402 -9.5625,13.6875 -4.4895,6.80205 -4.4895,6.80205 -5.625,7.9375 -5.5981,0.47883 -9.4062,-0.79438 -14.3125,-3.25 -15.2972,-7.09576 -34.4988,-11.48176 -51,-6.0625 -4.8031,2.07326 -8.2972,4.53207 -10.6875,9.3125 -0.619,4.91715 -0.6195,8.80682 1.6875,13.25 9.269,8.99261 24.8355,11.42641 36.7891,14.82032 22.3218,6.45243 48.3826,16.70893 60.5313,37.90625 5.9214,12.07601 5.9155,24.35953 2.0468,37.14843 -5.9217,16.14225 -19.1179,27.00036 -34.2109,34.30078 -6.3477,2.75322 -13.0941,4.1715 -19.8438,5.57422 -0.7602,0.17507 -1.5204,0.35014 -2.3037,0.53052 -30.1813,5.25523 -57.0318,-4.5814 -83.6963,-17.53052 0,-0.66 0,-1.32 0,-2 -0.5775,-0.2475 -1.155,-0.495 -1.75,-0.75 -2.6607,-1.4782 -4.3855,-2.83314 -6.25,-5.25 0.3411,-4.21601 2.0376,-7.00335 4.3438,-10.48437 0.669,-1.01707 1.338,-2.03414 2.0273,-3.08203 0.7026,-1.05059 1.4051,-2.10118 2.1289,-3.1836 0.7026,-1.06605 1.4051,-2.13211 2.129,-3.23047 5.1674,-7.81587 5.1674,-7.81587 6.371,-9.01953 5.3057,0.39693 9.1682,1.83892 13.875,4.25 5.6013,2.75966 11.188,4.89288 17.1875,6.625 0.7018,0.20271 1.4035,0.40541 2.1265,0.61426 7.4575,2.07342 14.3643,2.71695 22.061,2.76074 0.8908,0.0206 1.7815,0.0412 2.6993,0.0625 8.8686,0.0515 17.0094,-1.64504 24.0507,-7.3125 3.5991,-3.95212 3.5147,-7.14491 3.336,-12.3125 -0.4934,-3.94677 -1.5552,-5.8389 -4.336,-8.6875 -7.9885,-5.92872 -18.6266,-8.90652 -28.2734,-10.91797 -22.6824,-4.88844 -46.5268,-15.01204 -60.7266,-34.08203 -6.939,-11.35319 -8.7768,-23.90563 -7,-37 2.3757,-9.33168 7.3843,-18.04857 14,-25 0.6201,-0.6716 1.2401,-1.3432 1.879,-2.03515 9.0069,-8.87024 21.8011,-14.58669 34.121,-16.96485 1.5025,-0.30357 1.5025,-0.30357 3.0352,-0.61328 29.1921,-5.21415 58.5103,2.30089 82.957,18.60938 z"
     fill="#3f4042"
     id="path18"
     style="fill:#008000" />
  <path
     d="m 836.33151,141.37511 c 0.82876,-0.009 1.65752,-0.0181 2.5114,-0.0274 1.75601,-0.0145 3.51207,-0.0234 5.26814,-0.0271 2.68054,-0.0119 5.35877,-0.061 8.03882,-0.11158 1.70637,-0.009 3.41275,-0.0167 5.11914,-0.0215 0.79912,-0.0195 1.59825,-0.0391 2.42159,-0.0592 4.20154,0.0339 5.81133,0.21807 9.1978,2.93858 3.50418,4.4472 3.50418,4.4472 4.61889,6.10498 0.4233,0.62302 0.84659,1.24604 1.28272,1.88794 0.44037,0.6596 0.88075,1.3192 1.33447,1.99878 0.97381,1.4376 1.94777,2.8751 2.92187,4.3125 0.49178,0.72961 0.98356,1.45922 1.49024,2.21094 2.25797,3.34023 4.54889,6.65755 6.83789,9.97656 2.99375,4.35085 5.98102,8.70607 8.96094,13.06641 0.84679,1.23895 0.84679,1.23895 1.71069,2.50293 1.12376,1.64481 2.24698,3.28998 3.36963,4.93555 3.44035,5.03618 6.92667,10.03159 10.50952,14.96777 1.07422,1.71484 1.07422,1.71484 1.07422,3.71484 4.00122,-3.61062 6.77361,-7.8662 9.75,-12.3125 1.15794,-1.71155 2.31684,-3.42246 3.47656,-5.13281 0.61134,-0.90267 1.22268,-1.80533 1.85254,-2.73535 3.312,-4.86107 6.68012,-9.68292 10.0459,-14.50684 5.60875,-8.03879 5.60875,-8.03879 11.16015,-16.11718 0.4955,-0.72615 0.991,-1.45229 1.5015,-2.20044 0.8949,-1.3144 1.7875,-2.63048 2.6767,-3.94873 0.3975,-0.58371 0.7951,-1.16741 1.2046,-1.7688 0.3328,-0.49251 0.6657,-0.98501 1.0086,-1.49244 0.4367,-0.58902 0.8735,-1.17804 1.3234,-1.78491 0.6893,-1.04261 1.3785,-2.08522 2.0887,-3.15942 2.181,-2.57669 3.655,-3.28554 7.0114,-3.58521 1.6045,-0.0259 3.2098,-0.0181 4.814,0.0181 1.2772,-0.002 1.2772,-0.002 2.5802,-0.003 1.7937,0.005 3.5874,0.024 5.3807,0.0572 2.7486,0.0473 5.4933,0.0411 8.2422,0.0278 1.7449,0.0112 3.4897,0.0254 5.2344,0.043 0.8219,-0.002 1.6438,-0.004 2.4906,-0.006 5.65747,0.14108 5.65747,0.14108 8.19537,2.50479 0.9624,2.10229 0.9624,2.10229 1.0093,4.34057 -1.5753,4.15572 -4.13967,7.41345 -6.79687,10.94922 -1.1929,1.61833 -2.3856,3.23682 -3.5781,4.85547 -0.9175,1.23629 -0.9175,1.23629 -1.8535,2.49756 -2.8063,3.79573 -5.5611,7.62805 -8.3184,11.45947 -1.083,1.5002 -2.1663,3.0002 -3.25,4.5 -0.5362,0.7425 -1.0725,1.485 -1.625,2.25 -4.875,6.75 -4.875,6.75 -6.5007,9.00098 -1.0809,1.49671 -2.1618,2.99345 -3.2427,4.49023 -3.3023,4.57305 -6.6062,9.14499 -9.9123,13.71534 -1.0932,1.51338 -2.1848,3.028 -3.2744,4.54394 -2.5585,3.55828 -5.1349,7.0984 -7.7691,10.60108 -0.4741,0.63905 -0.9482,1.2781 -1.4367,1.93652 -0.8841,1.19063 -1.778,2.37412 -2.6831,3.54883 -2.2475,2.87199 -2.2475,2.87199 -2.5747,6.34692 0.8636,2.32107 1.9479,3.96637 3.4367,5.94507 0.5563,0.74645 1.1126,1.49289 1.6858,2.26196 0.6051,0.79914 1.2103,1.59828 1.8337,2.42163 1.284,1.71865 2.5679,3.4374 3.8516,5.15625 0.659,0.87785 1.3181,1.75571 1.9971,2.66016 3.0307,4.04503 6.0294,8.11349 9.0263,12.18359 0.5791,0.78512 1.1581,1.57024 1.7547,2.37915 4.4652,6.06186 8.8779,12.16036 13.2754,18.27149 3.4516,4.79018 6.9367,9.55409 10.4463,14.302 1.7817,2.41112 3.5574,4.8265 5.3322,7.24268 1.846,2.51186 3.7072,5.00886 5.6016,7.48437 0.64837,0.86883 1.29677,1.73766 1.96477,2.63281 0.535,0.69867 1.07,1.39735 1.6211,2.11719 1.2895,2.75005 0.93,4.17423 -0.059,7.00781 -1.0397,1.62256 -1.0397,1.62256 -2.99997,3 -2.8113,0.32276 -5.3969,0.46802 -8.2109,0.46875 -0.8051,0.008 -1.6103,0.0152 -2.4398,0.0231 -1.703,0.0108 -3.406,0.0137 -5.109,0.009 -2.5995,-9.7e-4 -5.1959,0.0406 -7.7949,0.085 -1.6563,0.005 -3.3125,0.008 -4.9688,0.008 -0.7741,0.0164 -1.5482,0.0328 -2.3458,0.0497 -3.986,-0.0508 -5.861,-0.42522 -8.9967,-2.96155 -0.7042,-0.88502 -1.4085,-1.77005 -2.1341,-2.68189 -0.4775,-0.59756 -0.955,-1.19512 -1.447,-1.81079 -0.3874,-0.55873 -0.7749,-1.11745 -1.174,-1.69311 -0.453,-0.64752 -0.9059,-1.29503 -1.3726,-1.96216 -0.4765,-0.69183 -0.9529,-1.38365 -1.4439,-2.09644 -0.5151,-0.73887 -1.0302,-1.47775 -1.561,-2.23901 -1.1029,-1.58235 -2.2037,-3.16614 -3.3027,-4.75122 -2.2664,-3.26508 -4.5487,-6.51889 -6.8306,-9.7732 -4.26091,-6.07808 -8.51144,-12.16343 -12.76268,-18.24829 -0.95254,-1.36258 -0.95254,-1.36258 -1.92432,-2.75268 -1.21771,-1.74194 -2.43486,-3.48427 -3.65137,-5.22705 -0.54994,-0.78657 -1.09989,-1.57314 -1.6665,-2.38355 -0.48171,-0.68965 -0.96341,-1.37929 -1.45972,-2.08984 -0.9915,-1.39352 -2.02345,-2.75867 -3.08252,-4.10156 -1.32104,-1.8711 -1.32104,-1.8711 -1.32104,-3.8711 -0.66,0 -1.32,0 -2,0 -0.36738,1.05574 -0.36738,1.05574 -0.74219,2.13282 -1.44234,3.28782 -3.25379,5.84816 -5.38281,8.74218 -0.90126,1.23848 -1.80087,2.47816 -2.69922,3.71875 -0.50064,0.69094 -1.00128,1.38188 -1.51709,2.09375 -3.24783,4.52803 -6.41776,9.11063 -9.59619,13.6875 -0.68844,0.99 -1.37688,1.98 -2.08618,3 -3.57468,5.14598 -7.12987,10.30438 -10.6604,15.48072 -11.90379,17.43821 -11.90379,17.43821 -15.31592,19.14428 -5.2621,0.28382 -10.52516,0.31366 -15.79419,0.3501 -1.76055,0.0166 -3.52103,0.0439 -5.28125,0.082 -2.53641,0.0547 -5.07124,0.0766 -7.60815,0.0913 -0.78758,0.0227 -1.57515,0.0453 -2.38659,0.0687 -2.2245,-0.009 -2.2245,-0.009 -5.92982,-0.59214 -2.1795,-2.57685 -2.98808,-3.97612 -3.02734,-7.34765 1.50325,-3.88102 3.9038,-6.8372 6.46484,-10.08985 1.10549,-1.43778 2.20964,-2.8766 3.3125,-4.3164 0.55172,-0.71688 1.10344,-1.43376 1.67187,-2.17237 2.23607,-2.93829 4.38376,-5.93438 6.51563,-8.94873 0.81492,-1.14856 1.63003,-2.297 2.44531,-3.44531 0.41927,-0.59071 0.83854,-1.18143 1.27051,-1.79004 2.53616,-3.55872 5.09873,-7.09838 7.65918,-10.63965 0.82166,-1.13671 0.82166,-1.13671 1.65991,-2.29638 1.11798,-1.54647 2.23606,-3.09285 3.35425,-4.63916 1.64569,-2.27621 3.29056,-4.55301 4.93506,-6.83008 0.53568,-0.74129 1.07137,-1.48259 1.62329,-2.24634 1.07143,-1.48478 2.14095,-2.97093 3.2085,-4.4585 2.83758,-3.94823 5.71305,-7.86054 8.64868,-11.73657 0.60779,-0.81275 1.21558,-1.62551 1.84179,-2.46289 1.16876,-1.56132 2.34929,-3.11391 3.54297,-4.65625 2.96519,-3.86873 2.96519,-3.86873 4.05664,-8.48242 -1.7388,-3.58663 -4.03242,-6.57089 -6.49609,-9.69141 -1.10366,-1.43328 -2.20516,-2.86823 -3.30469,-4.30468 -0.56429,-0.73574 -1.12857,-1.47147 -1.70996,-2.2295 -2.62093,-3.47162 -5.11854,-7.02592 -7.61035,-10.59082 -4.12497,-5.885 -8.28693,-11.74018 -12.5,-17.5625 -0.53786,-0.7433 -1.07572,-1.48661 -1.62988,-2.25244 -1.09252,-1.50897 -2.18529,-3.01776 -3.27832,-4.52637 -2.78348,-3.84248 -5.56297,-7.68784 -8.3418,-11.53369 -0.5352,-0.7404 -1.07041,-1.48081 -1.62183,-2.24365 -3.92616,-5.43585 -7.82954,-10.88763 -11.70898,-16.35693 -1.84948,-2.6903 -1.84948,-2.6903 -3.98169,-5.14942 0.79777,-8.77547 3.10345,-9.31629 11.33203,-9.37109 z"
     fill="#393b3c"
     id="path20"
     style="fill:#008000" />
  <path
     d="m 1135.8744,138.5587 c 1.4135,-0.0184 1.4135,-0.0184 2.8555,-0.0371 5.3119,-0.011 10.1375,0.40726 15.2891,1.72657 2.0264,0.50959 4.0427,0.85796 6.1054,1.18554 5.9077,1.27791 11.2171,4.1225 16.6172,6.75391 3.1623,1.59571 3.1623,1.59571 6.2578,2.55859 0,0.66 0,1.32 0,2 0.7219,0.25137 1.4438,0.50274 2.1875,0.76172 4.9169,2.16479 8.739,5.79143 12.8125,9.23828 0.5917,0.47051 1.1834,0.94102 1.793,1.42578 1.3945,1.19922 1.3945,1.19922 3.207,3.57422 -0.1859,5.24263 -2.3961,8.4007 -5.625,12.3125 -0.6707,0.84051 -0.6707,0.84051 -1.3549,1.698 -0.9034,1.13152 -1.811,2.25959 -2.7232,3.38403 -1.8414,2.27965 -3.6309,4.59854 -5.4219,6.91797 -0.9579,1.22946 -1.9161,2.45875 -2.875,3.6875 -4.8896,-0.48035 -7.5413,-1.78265 -11.375,-4.8125 -11.1514,-8.42754 -21.9315,-11.75949 -35.9375,-11.625 -1.1035,0.008 -2.2071,0.0152 -3.3442,0.0229 -8.1157,0.16411 -14.9064,0.964 -22.3433,4.41455 -0.9564,0.43571 -1.9129,0.87141 -2.8984,1.32032 -13.9797,7.009 -23.5662,18.49958 -28.6016,33.24218 -4.8269,16.11211 -3.4113,33.26306 4.1875,48.3125 7.1042,11.88791 17.3318,21.24799 30.3125,26.125 1.0313,0.39188 2.0625,0.78375 3.125,1.1875 14.6846,4.14998 32.3377,3.31262 45.8985,-3.76562 5.2259,-3.17848 9.7515,-6.76478 14.0273,-11.13672 2.828,-1.86455 4.633,-1.78387 7.9492,-1.28516 2.2383,1.76563 2.2383,1.76563 4.3125,4.25 0.758,0.9075 1.516,1.815 2.2969,2.75 0.7889,0.99 1.5778,1.98 2.3906,3 0.4235,0.51305 0.847,1.0261 1.2833,1.55469 7.5149,9.11316 7.5149,9.11316 8.1855,13.53906 -1.0693,6.62968 -7.736,10.68863 -12.8789,14.46094 -23.0388,16.23858 -47.1864,22.0618 -75.0332,17.24438 -9.3366,-1.7345 -17.1241,-4.372 -25.5567,-8.79907 -2.3189,-1.03965 -4.6557,-2.01868 -7,-3 0,-0.66 0,-1.32 0,-2 -2.97,-0.99 -2.97,-0.99 -6,-2 0,-0.66 0,-1.32 0,-2 -0.8043,-0.37125 -0.8043,-0.37125 -1.625,-0.75 -2.9573,-1.55652 -5.6722,-3.28435 -8.375,-5.25 0,-0.66 0,-1.32 0,-2 -0.66,0 -1.32,0 -2,0 0,-0.66 0,-1.32 0,-2 -0.66,0 -1.32,0 -2,0 0,-0.66 0,-1.32 0,-2 -0.66,0 -1.32,0 -2,0 -17.1822,-18.67639 -26.8356,-43.92653 -26.1914,-69.30859 0.6766,-9.51318 1.6121,-18.78277 5.1914,-27.69141 0.4422,-1.23105 0.8843,-2.46211 1.3399,-3.73047 4.4835,-11.94601 10.9648,-22.93168 19.6601,-32.26953 0.8779,-0.94617 1.7558,-1.89234 2.6602,-2.86718 18.7037,-19.64354 44.1908,-30.30198 71.2148,-30.32032 z"
     fill="#3a3c3d"
     id="path22"
     style="fill:#008000" />
  <path
     d="m 1775.1635,80.550888 c 1.2182,0.0348 1.2182,0.0348 2.4609,0.0703 1.2259,0.0271 1.2259,0.0271 2.4766,0.0547 0.9397,0.0348 0.9397,0.0348 1.8984,0.0703 1.3296,2.65908 1.1199,4.66566 1.1136,7.64307 -10e-5,1.77161 -10e-5,1.77161 -3e-4,3.57901 -0.01,1.28023 -0.01,2.56046 -0.016,3.87949 0,1.30673 0,2.61347 0,3.9598 0,3.475402 -0.014,6.950752 -0.025,10.426122 -0.01,3.54583 -0.015,7.09167 -0.02,10.63751 -0.011,6.95835 -0.028,13.91668 -0.049,20.875 1.3172,-0.0157 2.6344,-0.0314 3.9915,-0.0476 4.8808,-0.0543 9.7616,-0.0887 14.6426,-0.11719 2.1136,-0.0151 4.2273,-0.0356 6.3408,-0.0615 3.0358,-0.0363 6.0712,-0.0534 9.1072,-0.0667 1.4204,-0.0232 1.4204,-0.0232 2.8696,-0.0469 1.321,-3.4e-4 1.321,-3.4e-4 2.6687,-6.8e-4 0.775,-0.007 1.55,-0.0133 2.3485,-0.0202 2.6018,0.46212 3.4731,1.25253 5.0311,3.36076 0.2982,2.62254 0.4206,5.00294 0.3985,7.625 0,0.74331 0.01,1.48661 0.01,2.25244 0,1.57016 0,3.14034 -0.016,4.71045 -0.016,2.40358 -2e-4,4.80547 0.019,7.20899 0,1.52604 -0.01,3.05209 -0.012,4.57812 0.01,0.71882 0.012,1.43763 0.018,2.17823 -0.07,4.9777 -0.07,4.9777 -1.6674,7.13887 -2.2058,1.6491 -3.3934,1.67199 -6.1291,1.64848 -0.8807,-2.3e-4 -1.7614,-4.5e-4 -2.6687,-6.9e-4 -0.947,-0.0155 -1.894,-0.031 -2.8696,-0.0469 -0.9724,-0.004 -1.9448,-0.008 -2.9466,-0.0129 -3.108,-0.0168 -6.2152,-0.0545 -9.323,-0.0926 -2.1061,-0.015 -4.2122,-0.0287 -6.3183,-0.041 -5.165,-0.0331 -10.3295,-0.0849 -15.4942,-0.14649 0.085,11.67506 0.1796,23.34998 0.2876,35.02485 0.05,5.42195 0.096,10.84388 0.1343,16.26592 0.037,5.23911 0.083,10.47805 0.1362,15.71702 0.018,1.99209 0.034,3.98421 0.045,5.97635 -0.6167,19.00263 -0.6167,19.00263 6.3966,36.01586 2.3197,1.4299 4.3689,2.13889 7,3 0.99,0.33 1.98,0.66 3,1 6.8217,0.44647 13.1541,-0.0582 19.8086,-1.54297 2.8263,-0.58943 5.3213,-0.80704 8.1914,-0.45703 2.787,2.18545 3.5716,4.17611 4.3868,7.57032 0.2159,0.89718 0.4318,1.79437 0.6543,2.71875 0.2133,0.93585 0.4266,1.87171 0.6464,2.83593 0.3375,1.36899 0.3375,1.36899 0.6817,2.76563 2.6751,11.41614 2.6751,11.41614 1.6308,17.10937 -6.6534,8.02024 -21.3038,9.06467 -31,10 -14.7469,0.75402 -29.0643,-0.12508 -42,-8 -0.6329,-0.35707 -1.2658,-0.71414 -1.9179,-1.08203 -10.4489,-6.52765 -15.1656,-19.03429 -17.9477,-30.47911 -2.4193,-12.43107 -2.5214,-24.56027 -2.4273,-37.19276 0.01,-2.24015 0.01,-4.4803 0.013,-6.72045 0.011,-5.83767 0.041,-11.67512 0.074,-17.51271 0.031,-5.98019 0.044,-11.96042 0.06,-17.94067 0.032,-11.69086 0.083,-23.38154 0.1464,-35.07227 -0.7719,0.0157 -1.5438,0.0314 -2.3391,0.0476 -3.491,0.0623 -6.982,0.10136 -10.4734,0.13989 -1.8224,0.0377 -1.8224,0.0377 -3.6816,0.0762 -1.7451,0.0145 -1.7451,0.0145 -3.5254,0.0293 -1.0735,0.0157 -2.1471,0.0314 -3.2532,0.0476 -2.7273,-0.34058 -2.7273,-0.34058 -4.5739,-1.66016 -1.8738,-2.73016 -1.5874,-5.3014 -1.5909,-8.55542 -0.019,-1.21429 -0.039,-2.42859 -0.058,-3.67968 0.8764,-6.0869 4.8322,-8.90586 9.496,-12.50782 12.2012,-9.82919 24.2959,-21.58668 31,-35.9375 0.66,0 1.32,0 2,0 0.33,-1.65 0.66,-3.3 1,-5 0.66,0 1.32,0 2,0 0.33,-1.65 0.66,-3.3 1,-5 0.66,0 1.32,0 2,0 0.2372,-0.76828 0.4744,-1.53656 0.7188,-2.32812 1.7111,-4.90373 3.7376,-9.648942 5.7812,-14.421882 0.4035,-0.95777 0.807,-1.91554 1.2227,-2.90234 0.3906,-0.91395 0.7812,-1.82789 1.1836,-2.76953 0.3538,-0.83113 0.7077,-1.66225 1.0723,-2.51856 1.3277,-2.67701 2.1118,-3.97747 5.1855,-4.25488 z"
     fill="#3d3f40"
     id="path24"
     style="fill:#008000" />
  <path
     d="m 1476.6869,22.21495 c 1.1093,-0.006 1.1093,-0.006 2.241,-0.0116 1.56,-0.003 3.12,0.005 4.6799,0.0214 2.3842,0.0214 4.7654,1.9e-4 7.1495,-0.0254 1.5182,0.003 3.0364,0.008 4.5546,0.0156 0.7106,-0.008 1.4211,-0.0162 2.1531,-0.0245 3.2312,0.061 5.14,0.24829 7.7223,2.26116 2.1818,2.76263 2.3138,4.04339 2.3183,7.52611 0.011,1.06507 0.022,2.13014 0.034,3.22748 -0.01,1.16915 -0.016,2.3383 -0.025,3.54288 0.01,1.2427 0.014,2.4854 0.021,3.76576 0.015,3.45155 0.012,6.902238 0,10.353748 -0.01,3.72126 0.01,7.44243 0.022,11.16366 0.022,7.2904 0.022,14.58064 0.013,21.87106 -0.01,5.92333 -0.01,11.84662 0,17.769952 9e-4,0.8423 0,1.6846 0,2.55243 0,1.71098 0,3.42196 0.01,5.13295 0.017,16.0514 0.01,32.10272 -0.01,48.15412 -0.015,14.69621 -10e-5,29.39222 0.029,44.0884 0.029,15.08018 0.04,30.16026 0.031,45.24047 -10e-4,1.70446 0,3.40893 0,5.11339 -5e-4,0.83869 -10e-4,1.67738 0,2.54148 0,5.91879 0.01,11.83748 0.022,17.75624 0.017,7.20931 0.017,14.41836 -0.01,21.62766 -0.011,3.68047 -0.014,7.36047 0,11.04092 0.02,3.98393 0,7.96713 -0.022,11.95105 0.012,1.17138 0.024,2.34276 0.036,3.54964 -0.012,1.06246 -0.025,2.12492 -0.038,3.21957 -3e-4,0.92017 -6e-4,1.84035 -9e-4,2.7884 -0.6256,2.31725 -0.6256,2.31725 -2.9823,4.10912 -5.0502,2.30824 -10.4926,1.7619 -15.9558,1.77063 -1.7972,0.0551 -1.7972,0.0551 -3.6308,0.11133 -6.8456,0.034 -11.2937,-0.49559 -16.5925,-4.99048 -2.9864,-3.43351 -3.7144,-6.29438 -3.7214,-10.80272 -0.01,-1.04007 -0.013,-2.08014 -0.02,-3.15172 0,-1.14123 0.01,-2.28246 0.01,-3.45828 0,-1.21341 -0.01,-2.42682 -0.014,-3.677 -0.011,-3.36958 -0.012,-6.73894 -0.01,-10.10852 4e-4,-3.63332 -0.011,-7.26661 -0.02,-10.89992 -0.017,-7.11824 -0.022,-14.23644 -0.023,-21.3547 -9e-4,-5.7841 0,-11.5682 -0.011,-17.3523 -0.018,-16.39135 -0.027,-32.78268 -0.025,-49.17405 10e-5,-0.88383 2e-4,-1.76765 2e-4,-2.67826 10e-5,-0.8849 2e-4,-1.7698 3e-4,-2.68152 8e-4,-14.34954 -0.018,-28.69898 -0.046,-43.04849 -0.029,-14.72648 -0.043,-29.4529 -0.041,-44.17941 6e-4,-8.270912 0,-16.541722 -0.026,-24.812612 -0.018,-7.04016 -0.023,-14.08015 -0.01,-21.12032 0.01,-3.59346 0.01,-7.18661 -0.011,-10.78004 -0.018,-3.891518 -0.01,-7.782578 0.01,-11.674118 -0.01,-1.14123 -0.021,-2.28246 -0.031,-3.45828 0.01,-1.04006 0.018,-2.08013 0.028,-3.15171 -5e-4,-0.89853 -9e-4,-1.79706 0,-2.72281 1.3661,-6.56014 6.4169,-6.99357 12.1865,-6.92782 z"
     fill="#3d3e40"
     id="path26"
     style="fill:#008000" />
  <path
     d="m 2277.808,141.34777 c 0.7632,-0.003 1.5263,-0.006 2.3126,-0.009 1.613,-0.002 3.2261,0.003 4.8391,0.016 2.465,0.016 4.9283,1.6e-4 7.3933,-0.019 1.5683,0.002 3.1367,0.006 4.705,0.0117 1.1033,-0.009 1.1033,-0.009 2.2289,-0.0184 2.8515,0.039 5.2698,0.2279 7.907,1.35345 2.9668,3.39044 2.3558,7.11135 2.3135,11.46578 0.01,0.97541 0.012,1.95082 0.019,2.95579 0.016,3.28409 0,6.56744 -0.01,9.85154 0.01,2.34884 0.013,4.69768 0.021,7.04651 0.018,6.3954 0.011,12.79055 0,19.18596 -0.01,3.99844 -0.01,7.99685 0,11.99529 6e-4,0.66384 0,1.32767 0,2.01163 0,1.34874 0,2.69748 0,4.04622 0.011,12.66157 0,25.32303 -0.023,37.98459 -0.018,10.83724 -0.015,21.6743 0,32.51154 0.022,12.59609 0.03,25.19209 0.018,37.7882 0,1.34775 0,2.6955 0,4.04326 -6e-4,0.66301 0,1.32603 0,2.00913 0,4.64528 0,9.29048 0.012,13.93575 0.012,6.27832 0,12.55632 -0.019,18.83461 -0.01,2.2944 0,4.58882 0.01,6.88321 0.086,24.598 -4.5021,47.57699 -22.0072,66.12766 -7.082,6.6983 -15.5145,13.75675 -25.211,16.01172 -3.632,-0.98163 -5.2648,-3.63688 -7.3125,-6.625 -2.4338,-4.27507 -4.6295,-8.65513 -6.8125,-13.0625 -0.5974,-1.17111 -1.1949,-2.34222 -1.8105,-3.54883 -0.564,-1.12986 -1.1279,-2.25972 -1.709,-3.42382 -0.5128,-1.02489 -1.0256,-2.04977 -1.5539,-3.10572 -1.1331,-2.908 -1.5157,-4.77645 -1.1141,-7.85913 2.0118,-1.8789 2.0118,-1.8789 4.6875,-3.5625 1.3671,-0.88558 1.3671,-0.88558 2.7618,-1.78906 0.8417,-0.54398 1.6835,-1.08797 2.5507,-1.64844 1.485,-1.20656 1.485,-1.20656 3,-2.4375 2,-1.5625 2,-1.5625 4,-1.5625 1.4102,-2.78858 2.7665,-5.59404 4.0625,-8.4375 0.3417,-0.74121 0.6833,-1.48242 1.0352,-2.24609 2.1618,-5.54943 2.0473,-10.98725 2.0404,-16.85697 0,-0.96587 0.01,-1.93174 0.01,-2.92689 0.01,-3.23888 0.01,-6.47773 0.011,-9.71663 0,-2.32096 0.01,-4.64193 0.015,-6.96289 0.011,-4.99874 0.02,-9.99747 0.026,-14.99622 0.011,-7.89841 0.031,-15.79677 0.053,-23.69516 0.01,-2.70278 0.015,-5.40556 0.022,-8.10835 0,-0.67537 0,-1.35075 0.01,-2.04659 0.021,-7.68306 0.04,-15.36612 0.058,-23.04919 0,-0.70217 0,-1.40434 0.01,-2.12779 0.026,-11.39167 0.045,-22.78334 0.062,-34.17502 0.017,-11.69471 0.046,-23.38936 0.085,-35.08402 0.021,-6.56671 0.037,-13.13334 0.039,-19.70009 0,-6.17075 0.018,-12.34131 0.044,-18.512 0.01,-2.26921 0.01,-4.53845 0.01,-6.80768 0,-3.08833 0.01,-6.17606 0.03,-9.26433 -0.01,-0.90611 -0.011,-1.81223 -0.017,-2.7458 0.01,-0.82497 0.018,-1.64994 0.027,-2.49991 0,-0.71306 0,-1.42613 0,-2.1608 1.1734,-5.83864 6.2844,-5.31888 11.1864,-5.27851 z"
     fill="#3e3f41"
     id="path28"
     style="fill:#008000" />
  <path
     d="m 2103.1298,217.36525 c 1.0361,-0.008 2.0722,-0.0169 3.1397,-0.0256 1.6966,0.009 1.6966,0.009 3.4275,0.0184 1.1954,-0.005 2.3909,-0.0105 3.6225,-0.0159 3.2748,-0.0109 6.5492,-0.008 9.824,0.001 3.4273,0.008 6.8545,5.5e-4 10.2817,-0.004 5.7542,-0.005 11.5083,0.002 17.2625,0.016 6.6541,0.0163 13.3079,0.011 19.962,-0.005 5.7131,-0.0136 11.426,-0.0155 17.1391,-0.008 3.4123,0.005 6.8244,0.005 10.2366,-0.005 3.8022,-0.008 7.6038,0.004 11.4059,0.0207 1.1331,-0.006 2.2662,-0.0121 3.4336,-0.0184 1.0333,0.008 2.0666,0.0169 3.1311,0.0256 0.8991,0.001 1.7982,0.002 2.7245,0.003 2.7595,0.45713 3.6505,1.13103 5.2789,3.37752 0.3882,3.12281 0.3882,3.12281 0.3985,6.9336 0,1.01152 0,1.01152 0.01,2.04347 0,1.42473 0,2.84948 -0.016,4.27415 -0.016,2.17537 -2e-4,4.34887 0.019,6.52417 0,1.38608 -0.01,2.77215 -0.012,4.15821 0,1.25869 -0.01,2.51737 -0.01,3.81421 -0.4249,3.56003 -0.9173,4.73059 -3.3882,7.25219 -2.2973,0.50057 -2.2973,0.50057 -5.048,0.50121 -1.0432,0.01 -2.0863,0.0197 -3.1611,0.0298 -1.144,-0.01 -2.288,-0.0193 -3.4666,-0.0293 -1.8076,0.008 -1.8076,0.008 -3.6517,0.0164 -3.3061,0.0104 -6.6112,0.003 -9.9171,-0.0137 -3.458,-0.0138 -6.9159,-0.007 -10.3739,-0.004 -5.8073,0.003 -11.6143,-0.0108 -17.4216,-0.034 -6.716,-0.0266 -13.4317,-0.0284 -20.1477,-0.0166 -6.458,0.0108 -12.9159,0.005 -19.3739,-0.01 -2.7495,-0.006 -5.499,-0.006 -8.2486,-9.4e-4 -3.8381,0.006 -7.6759,-0.0135 -11.514,-0.0354 -1.144,0.004 -2.288,0.009 -3.4666,0.0136 -1.5647,-0.0149 -1.5647,-0.0149 -3.1611,-0.03 -0.9077,-0.002 -1.8155,-0.005 -2.7507,-0.007 -2.7732,-0.4591 -3.666,-1.11796 -5.2974,-3.38032 -0.404,-3.23047 -0.404,-3.23047 -0.4335,-7.1875 -0.01,-0.69891 -0.01,-1.39782 -0.016,-2.11792 -0.01,-1.47598 -0.01,-2.95201 0,-4.42798 0.01,-2.25906 -0.02,-4.5156 -0.052,-6.77441 0,-1.43489 -0,-2.86979 0,-4.30469 0,-1.30582 0,-2.61164 -0.01,-3.95703 0.5017,-3.23047 0.5017,-3.23047 2.2125,-4.90856 2.7076,-1.56349 4.3075,-1.69894 7.4196,-1.70286 z"
     fill="#3d3f41"
     id="path34"
     style="fill:#008000" />
  <path
     d="m 1559.0404,217.36525 c 1.0164,-0.008 2.0328,-0.0169 3.08,-0.0256 1.6638,0.009 1.6638,0.009 3.3612,0.0184 1.1728,-0.005 2.3455,-0.0105 3.5538,-0.0159 3.2129,-0.0109 6.4255,-0.008 9.6384,0.001 3.3649,0.008 6.7298,5.5e-4 10.0947,-0.004 5.6517,-0.005 11.3032,0.002 16.9548,0.016 6.5291,0.0163 13.0579,0.011 19.587,-0.005 5.6095,-0.0136 11.2189,-0.0155 16.8284,-0.008 3.3486,0.005 6.6971,0.005 10.0457,-0.005 3.7347,-0.008 7.4688,0.004 11.2035,0.0207 1.1072,-0.006 2.2143,-0.0121 3.3551,-0.0184 9.6622,0.0802 9.6622,0.0802 13.2564,3.40658 0.6153,3.23047 0.6153,3.23047 0.5938,7.1875 0,0.69892 10e-5,1.39783 10e-5,2.11792 -0.01,1.47609 -0.023,2.95217 -0.052,4.42798 -0.042,2.25903 -0.041,4.51507 -0.034,6.77442 -0.08,10.89897 -0.08,10.89897 -1.7186,13.16986 -2.3861,1.7634 -3.8832,1.70209 -6.8373,1.71 -1.0432,0.01 -2.0863,0.0198 -3.1611,0.03 -1.144,-0.004 -2.288,-0.009 -3.4666,-0.0136 -1.2051,0.007 -2.4102,0.0137 -3.6517,0.0208 -3.3059,0.0152 -6.6113,0.0168 -9.9171,0.0111 -2.7586,-0.003 -5.5172,0.003 -8.2758,0.009 -6.5066,0.014 -13.0131,0.0125 -19.5197,10e-4 -6.716,-0.0115 -13.4317,0.003 -20.1477,0.0294 -5.764,0.0221 -11.5279,0.0288 -17.2919,0.0229 -3.4436,-0.003 -6.887,-9.2e-4 -10.3306,0.0163 -3.8381,0.0183 -7.6758,0.004 -11.514,-0.0129 -1.144,0.01 -2.288,0.0193 -3.4666,0.0293 -1.0432,-0.01 -2.0863,-0.0197 -3.1611,-0.0298 -0.9077,-2.1e-4 -1.8155,-4.2e-4 -2.7507,-6.4e-4 -2.2974,-0.50057 -2.2974,-0.50057 -4.0876,-2.32863 -1.7363,-3.11733 -1.6158,-5.68679 -1.6433,-9.23834 -0.01,-0.67531 -0.011,-1.35061 -0.016,-2.04638 -0.01,-1.42292 -0.01,-2.8459 0,-4.26881 0.01,-2.17779 -0.02,-4.35298 -0.052,-6.53052 0,-1.38476 -10e-4,-2.76953 0,-4.15429 0,-1.25756 0,-2.51513 -0.01,-3.81079 0.5017,-3.12281 0.5017,-3.12281 2.218,-4.79417 2.6817,-1.56017 4.2386,-1.70563 7.3247,-1.70959 z"
     fill="#3c3e3f"
     id="path36"
     style="fill:#008000" />
  <path
     d="m 2297.3744,25.8712 c 6.6218,3.73587 10.3355,8.52446 12.625,15.875 0.9446,6.84056 0.2726,12.121428 -3.4414,17.992188 -4.3208,5.56616 -9.2251,9.43284 -16.3554,10.37891 -8.3308,0.18733 -13.851,-1.34655 -20.0196,-7.05078 -5.4017,-5.85728 -6.7297,-11.63633 -6.5586,-19.507818 0.9516,-7.13659 5.13,-12.14974 10.5313,-16.62109 7.2325,-4.67354 15.5235,-4.64373 23.2187,-1.06641 z"
     fill="#414243"
     id="path42"
     style="fill:#008000" />
</svg>
